<svg xmlns="http://www.w3.org/2000/svg" width="1374" height="331" viewBox="0 0 1374 331">
  <g id="Group_11302" data-name="Group 11302" transform="translate(-153 -3282)">
    <path id="Path_1999" data-name="Path 1999" d="M193.04,28.475q-29.307,29.307-68.269,29.307a108.13,108.13,0,0,1-45.34-9.654A114.657,114.657,0,0,1,42.538,21.58,126.877,126.877,0,0,1,17.713-18.244,132.429,132.429,0,0,1,8.576-67.722a123.522,123.522,0,0,1,9.137-47.409,123.53,123.53,0,0,1,25.17-38.962,120.609,120.609,0,0,1,37.755-26.549,113.256,113.256,0,0,1,47.237-9.827q34.479,0,59.132,14.481t37.065,38.962l-35.514,26.2a65.893,65.893,0,0,0-26.032-27.928A71.5,71.5,0,0,0,126.15-148.4,62.025,62.025,0,0,0,97.7-141.852a66.619,66.619,0,0,0-22.067,17.929A84.607,84.607,0,0,0,61.5-97.719a97.536,97.536,0,0,0-5,31.376A92.662,92.662,0,0,0,62.019-34.1,82.129,82.129,0,0,0,77.19-8.073,71.025,71.025,0,0,0,100.119,9.339a65.6,65.6,0,0,0,28.79,6.379q35.514,0,64.131-33.445v-17.24H143.735V-69.791h88.612V56.059H193.04ZM268.205-195.64h46.2V-1.866q0,10,4.827,15.516t13.792,5.517a34.61,34.61,0,0,0,9.137-1.379,61.8,61.8,0,0,0,9.482-3.448l6.206,35.169a89.353,89.353,0,0,1-21.722,6.9,118.5,118.5,0,0,1-22.412,2.414Q292,58.817,280.1,47.267t-11.9-32.928ZM461.289,59.507q-22.067,0-39.651-7.585a89.056,89.056,0,0,1-29.825-20.515A90.556,90.556,0,0,1,373.022,1.582a97.37,97.37,0,0,1-6.551-35.514,98.309,98.309,0,0,1,6.551-35.858,90.556,90.556,0,0,1,18.791-29.825,89.056,89.056,0,0,1,29.825-20.515q17.584-7.585,39.651-7.585t39.479,7.585A89.486,89.486,0,0,1,530.42-99.615a90.557,90.557,0,0,1,18.791,29.825,98.307,98.307,0,0,1,6.551,35.858,97.368,97.368,0,0,1-6.551,35.514,92.015,92.015,0,0,1-18.619,29.825A87.193,87.193,0,0,1,500.94,51.921Q483.356,59.507,461.289,59.507ZM414.053-33.932a62.947,62.947,0,0,0,3.62,21.894,53.5,53.5,0,0,0,10,17.067,44.692,44.692,0,0,0,15,11.206A44.012,44.012,0,0,0,461.289,20.2a44.012,44.012,0,0,0,18.619-3.965,44.692,44.692,0,0,0,15-11.206,53.116,53.116,0,0,0,10-17.24,64.407,64.407,0,0,0,3.62-22.067A63.349,63.349,0,0,0,504.905-56a53.116,53.116,0,0,0-10-17.24,44.692,44.692,0,0,0-15-11.206,44.012,44.012,0,0,0-18.619-3.965,42.465,42.465,0,0,0-18.619,4.138,46.786,46.786,0,0,0-15,11.378,53.116,53.116,0,0,0-10,17.24A63.35,63.35,0,0,0,414.053-33.932ZM689.542,59.507q-20.687,0-36.893-9.309a67.973,67.973,0,0,1-25.515-25.515V56.059H586.794v-251.7H633V-92.892a69.691,69.691,0,0,1,25.342-25.687q15.688-9.137,36.72-9.137a68.042,68.042,0,0,1,32.066,7.585,80.54,80.54,0,0,1,25,20.343,91.881,91.881,0,0,1,16.205,30,114.776,114.776,0,0,1,5.689,36.2,102.635,102.635,0,0,1-6.379,36.548,91.806,91.806,0,0,1-17.757,29.48,83.452,83.452,0,0,1-26.894,19.826A78.1,78.1,0,0,1,689.542,59.507ZM676.785,20.2a47.826,47.826,0,0,0,20.343-4.31A48.7,48.7,0,0,0,712.988,4.34a52.233,52.233,0,0,0,10.171-16.895,58.436,58.436,0,0,0,3.62-20.688,64.061,64.061,0,0,0-3.448-21.032,54.761,54.761,0,0,0-9.827-17.584,48.949,48.949,0,0,0-15-12.068,40.481,40.481,0,0,0-18.964-4.482,42.253,42.253,0,0,0-27.756,10.171A67.5,67.5,0,0,0,633-53.24v43.1a39.115,39.115,0,0,0,7.068,12.413,51.381,51.381,0,0,0,10.516,9.482,50.5,50.5,0,0,0,12.757,6.206A43.379,43.379,0,0,0,676.785,20.2ZM854.7,59.507a68.537,68.537,0,0,1-24.48-4.31,58.848,58.848,0,0,1-19.653-12.068,56.169,56.169,0,0,1-12.93-18.1A54.817,54.817,0,0,1,792.98,2.271a50.13,50.13,0,0,1,5.689-23.618A54.157,54.157,0,0,1,814.53-39.794a78.628,78.628,0,0,1,24.308-11.9A106.035,106.035,0,0,1,869.869-56a133.71,133.71,0,0,1,23.618,2.069A96.2,96.2,0,0,1,914-48.069V-58.412Q914-76.342,903.831-86T873.661-95.65a79.908,79.908,0,0,0-28.273,5.172,131.3,131.3,0,0,0-28.273,15.171l-14.136-29.307q34.824-23.1,75.165-23.1,38.962,0,60.511,19.136T960.2-53.24v56.2q0,7.241,2.586,10.344t8.447,3.448V56.059A102.865,102.865,0,0,1,950.9,58.472q-13.1,0-20.17-5.861A25.2,25.2,0,0,1,921.932,37.1l-1.034-10a79.959,79.959,0,0,1-29.307,24.136A84.159,84.159,0,0,1,854.7,59.507Zm13.1-33.79a60.191,60.191,0,0,0,22.239-4.138q10.516-4.138,16.378-11.033Q914,4.685,914-2.556V-23.244a113.119,113.119,0,0,0-17.929-5,96.571,96.571,0,0,0-18.619-1.9q-17.929,0-29.307,8.1T836.769-1.522a24.684,24.684,0,0,0,8.965,19.481Q854.7,25.717,867.8,25.717ZM1002.959-195.64h46.2V-1.866q0,10,4.827,15.516t13.792,5.517a34.61,34.61,0,0,0,9.137-1.379,61.792,61.792,0,0,0,9.482-3.448l6.206,35.169a89.356,89.356,0,0,1-21.722,6.9,118.5,118.5,0,0,1-22.411,2.414q-21.722,0-33.617-11.551t-11.9-32.928Zm109.3,0h46.2V-1.866q0,10,4.827,15.516t13.792,5.517a34.609,34.609,0,0,0,9.137-1.379,61.793,61.793,0,0,0,9.482-3.448l6.206,35.169a89.354,89.354,0,0,1-21.722,6.9,118.5,118.5,0,0,1-22.412,2.414q-21.722,0-33.617-11.551t-11.9-32.928ZM1221.9,91.228a89.133,89.133,0,0,0,11.378,2.586,62,62,0,0,0,9.309.862,19.761,19.761,0,0,0,8.275-1.724,17.72,17.72,0,0,0,6.9-6.034,58.9,58.9,0,0,0,6.206-11.9q3.1-7.585,6.551-18.964l-71.372-180.671h47.581l48.961,140.676,43.444-140.676h43.444l-75.854,216.53a64.69,64.69,0,0,1-22.411,31.031q-15.861,12.068-39.306,12.068a74.73,74.73,0,0,1-11.206-.862,71.659,71.659,0,0,1-11.9-2.931Z" transform="translate(144.424 3477.64)" fill="#023a52"/>
    <text id="Minded" transform="translate(1206 3605)" fill="#023a52" font-size="36" font-family="Raleway-Bold, Raleway" font-weight="700"><tspan x="0" y="0">Minded</tspan></text>
  </g>
</svg>
